<svg width="13" height="13" viewBox="0 0 13 13" fill="#bbb" xmlns="http://www.w3.org/2000/svg">
<path fill-rule="evenodd" clip-rule="evenodd" d="M0.936317 6.2811L5.68838 3.50958C5.74741 3.47516 5.79652 3.42604 5.83094 3.36702C5.94113 3.1781 5.8773 2.93563 5.68838 2.82545L0.936317 0.0539266C0.875762 0.0186093 0.806916 0 0.736815 0C0.518113 0 0.34082 0.177293 0.34082 0.395994V5.93903C0.34082 6.00913 0.35943 6.07798 0.394747 6.13853C0.504929 6.32745 0.747398 6.39128 0.936317 6.2811ZM12.2635 2.66542H6.7444L6.77198 2.68151C7.04038 2.83805 7.13107 3.18254 6.97453 3.45094C6.92562 3.5348 6.85584 3.60458 6.77198 3.65349L6.05232 4.07322H12.2635C12.6522 4.07322 12.9674 3.75807 12.9674 3.36932C12.9674 2.98057 12.6522 2.66542 12.2635 2.66542ZM2.40898 11.1122C2.02023 11.1122 1.70508 11.4274 1.70508 11.8161C1.70508 12.2049 2.02023 12.52 2.40898 12.52H12.2636C12.6523 12.52 12.9675 12.2049 12.9675 11.8161C12.9675 11.4274 12.6523 11.1122 12.2636 11.1122H2.40898ZM2.40898 6.88881C2.02023 6.88881 1.70508 7.20396 1.70508 7.59271C1.70508 7.98147 2.02023 8.29661 2.40898 8.29661H12.2636C12.6523 8.29661 12.9675 7.98147 12.9675 7.59271C12.9675 7.20396 12.6523 6.88881 12.2636 6.88881H2.40898Z" fill="white"/>
</svg>
