        <!--Sprite svg-->
        <svg xmlns="http://www.w3.org/2000/svg">
            <!--Plus-->
            <symbol id="plus" viewBox="0 0 19 20" version="1.1" xmlns="http://www.w3.org/2000/svg" xmlns:xlink="http://www.w3.org/1999/xlink">
                <g  stroke="none" stroke-width="1" fill="none" fill-rule="evenodd">
                    <g  transform="translate(-1245.000000, -746.000000)" fill="#5e6e8c" fill-rule="nonzero">
                        <g transform="translate(1232.000000, 735.000000)">
                            <polygon points="23.7539062 19.5507812 31.8007812 19.5507812 31.8007812 22.2460938 23.7539062 22.2460938 23.7539062 30.5664062 21.0390625 30.5664062 21.0390625 22.2460938 13.03125 22.2460938 13.03125 19.5507812 21.0390625 19.5507812 21.0390625 11.1914062 23.7539062 11.1914062"></polygon>
                        </g>
                    </g>
                </g>
            </symbol>
            <!--Zoom-->
            <symbol id="zoom" viewBox="0 0 18 16" version="1.1" xmlns="http://www.w3.org/2000/svg" xmlns:xlink="http://www.w3.org/1999/xlink">
                <g  stroke="none" stroke-width="1" fill="none" fill-rule="evenodd">
                    <g transform="translate(-279.000000, -34.000000)" fill="#fff" fill-rule="nonzero">
                        <g transform="translate(279.000000, 34.000000)">
                            <path d="M16.9419142,15.1819573 L16.4398798,15.647311 C15.9360961,16.117563 15.1191969,16.117563 14.6154133,15.647311 L11.4580192,12.7049699 C10.324506,13.3662619 8.98458139,13.7499745 7.54844813,13.7499745 C3.47794618,13.7499745 0.177113703,10.6721094 0.177113703,6.87580365 C0.177113703,3.07949791 3.47794618,0 7.55019738,0 C11.6224486,0 14.9232811,3.07949791 14.9232811,6.87580365 C14.9232811,8.22124707 14.5069598,9.48015104 13.7897678,10.539851 L16.9436634,13.4805592 C17.4456978,13.9491785 17.4456978,14.7117053 16.9419142,15.1819573 Z M7.55019738,1.90223492 C4.60621165,1.90223492 2.21848705,4.12776814 2.21848705,6.87580365 C2.21848705,9.62057353 4.60621165,11.8477396 7.55019738,11.8477396 C10.4959324,11.8477396 12.8819077,9.62057353 12.8819077,6.87580365 C12.8819077,4.12940096 10.4941831,1.90223492 7.55019738,1.90223492 Z"></path>
                        </g>
                    </g>
                </g>
            </symbol>
            <!--Lineas-->
            <symbol id="lineas" width="15" height="17" viewBox="0 0 15 17" fill="none">
                <path d="M1.5 1.5V15.5357" stroke="#EB4662" stroke-width="2" stroke-linecap="square"/>
                <path d="M5.5 8V15.5357" stroke="#EB4662" stroke-width="2" stroke-linecap="square"/>
                <path d="M13.5 12V15.5357" stroke="#EB4662" stroke-width="2" stroke-linecap="square"/>
                <path d="M9.5 4V15.5357" stroke="#EB4662" stroke-width="2" stroke-linecap="square"/>
            </symbol>
            <!--INICIO DE PLAYLIST ICONS-->
            <!--Aleatorio-->
            <symbol id="aleatorio" width="16" height="12" viewBox="0 0 16 12" fill="none" xmlns="http://www.w3.org/2000/svg">
              <path fill-rule="evenodd" clip-rule="evenodd" d="M12.3018 1.82643V0.563843L15.8545 2.66816L12.3018 4.77247V3.50989H11.633C9.63888 3.50989 8.01038 4.5589 6.69123 6.71594C5.34237 9.04871 3.39467 10.2437 0.932991 10.2437H0.222443V8.56024H0.932991C2.92966 8.56024 4.43717 7.63533 5.52964 5.74637C7.11917 3.14672 9.1688 1.82643 11.633 1.82643H12.3018ZM12.3018 8.56024V7.29765L15.8545 9.40197L12.3018 11.5063V10.2437H11.633C9.67548 10.2437 7.97958 9.41053 6.5681 7.76473C6.60968 7.69673 6.65073 7.62771 6.69123 7.55766C6.9398 7.15121 7.19935 6.78409 7.47027 6.45593C8.63709 7.86932 10.0146 8.56024 11.633 8.56024H12.3018ZM5.52964 4.90465C5.6665 4.68082 5.80676 4.46648 5.95041 4.26165C4.66407 2.64906 2.97544 1.82643 0.932991 1.82643H0.222443V3.50989H0.932991C2.66128 3.50989 4.02307 4.20287 5.06643 5.6142C5.22845 5.39504 5.3828 5.15855 5.52964 4.90465Z" fill="white" />
            </symbol>
            <!--Anterior-->
            <symbol  id="anterior" width="10" height="11" viewBox="0 0 10 11" fill="none" >
              <path fill-rule="evenodd" clip-rule="evenodd" d="M8.23836 0.899312C8.32828 0.848014 8.43052 0.820984 8.53462 0.820984C8.8594 0.820984 9.12268 1.0785 9.12268 1.39617V4.26264V6.58095V9.44742C9.12268 9.54925 9.09505 9.64924 9.0426 9.7372C8.87898 10.0116 8.51891 10.1043 8.23836 9.94428L2.34247 6.58095V9.0541C2.34247 9.58904 1.90881 10.0227 1.37387 10.0227C0.838925 10.0227 0.405268 9.58904 0.405268 9.0541V1.78959C0.405268 1.25464 0.838925 0.820984 1.37387 0.820984C1.90881 0.820984 2.34247 1.25464 2.34247 1.78959V4.26264L8.23836 0.899312Z" fill="white" />
            </symbol>
            <!--Pausa-->
          <symbol id="pausa" width="8" height="11" viewBox="0 0 8 11" fill="none" xmlns="http://www.w3.org/2000/svg">
            <path fill-rule="evenodd" clip-rule="evenodd" d="M1.93224 0.162781C2.61555 0.162781 3.16948 0.649187 3.16948 1.2492V9.50599C3.16948 10.106 2.61555 10.5924 1.93224 10.5924C1.24894 10.5924 0.695007 10.106 0.695007 9.50599V1.2492C0.695007 0.649187 1.24894 0.162781 1.93224 0.162781ZM6.36273 0.162781C7.04604 0.162781 7.59996 0.649187 7.59996 1.2492V9.50599C7.59996 10.106 7.04604 10.5924 6.36273 10.5924C5.67942 10.5924 5.12549 10.106 5.12549 9.50599V1.2492C5.12549 0.649187 5.67942 0.162781 6.36273 0.162781Z" fill="white"/>
          </symbol>
          <!--Play-->
          <symbol id="play" viewBox="0 0 373.008 373.008" >
          	<g id="Layer_8_16_">
		          <path d="M61.792,2.588C64.771,0.864,68.105,0,71.444,0c3.33,0,6.663,0.864,9.655,2.588l230.116,167.2
			          c5.963,3.445,9.656,9.823,9.656,16.719c0,6.895-3.683,13.272-9.656,16.713L81.099,370.427c-5.972,3.441-13.334,3.441-19.302,0
			          c-5.973-3.453-9.66-9.833-9.66-16.724V19.305C52.137,12.413,55.818,6.036,61.792,2.588z" fill="white"/>
	          </g>
          </symbol>

          <!--Siguiente-->
          <symbol id="siguiente" width="10" height="11" viewBox="0 0 10 11" fill="none" xmlns="http://www.w3.org/2000/svg">
            <path fill-rule="evenodd" clip-rule="evenodd" d="M1.2896 0.899312C1.19967 0.848014 1.09743 0.820984 0.993332 0.820984C0.668556 0.820984 0.405273 1.0785 0.405273 1.39617V4.26264V6.58095V9.44742C0.405273 9.54925 0.432909 9.64924 0.485355 9.7372C0.648978 10.0116 1.00905 10.1043 1.2896 9.94428L7.18548 6.58095V9.0541C7.18548 9.58904 7.61914 10.0227 8.15409 10.0227C8.68903 10.0227 9.12269 9.58904 9.12269 9.0541V1.78959C9.12269 1.25464 8.68903 0.820984 8.15409 0.820984C7.61914 0.820984 7.18548 1.25464 7.18548 1.78959V4.26264L1.2896 0.899312Z" fill="white" />
          </symbol>
        <!--Repetir-->
        <symbol id="repetir" width="15" height="14" viewBox="0 0 15 14" fill="none" xmlns="http://www.w3.org/2000/svg">
          <path fill-rule="evenodd" clip-rule="evenodd" d="M7.35722 3.56284H11.4494V4.85592L14.7966 2.67982L11.4494 0.503723V1.82196H7.35722C3.13998 1.82196 0.849976 3.89209 0.849976 7.90246H2.33762C2.33762 4.96609 3.8899 3.56284 7.35722 3.56284ZM8.28936 10.5012H4.19717V9.20812L0.849976 11.3842L4.19717 13.5603V12.2421H8.28936C12.5066 12.2421 14.7966 10.172 14.7966 6.16158H13.309C13.309 9.09796 11.7567 10.5012 8.28936 10.5012Z" fill="white"/>
        </symbol>
        <!--Volumen-->
        <symbol id="volumen" width="15" height="11" viewBox="0 0 15 11" fill="none" xmlns="http://www.w3.org/2000/svg">
          <path fill-rule="evenodd" clip-rule="evenodd" d="M14.0985 5.49997C14.0982 7.44551 13.3196 9.31008 11.9362 10.678L11.0258 9.71071C12.1324 8.59019 12.7468 7.07478 12.7328 5.49997C12.7468 3.92516 12.1324 2.40975 11.0258 1.28923L11.9362 0.321899C13.3196 1.68986 14.0982 3.55443 14.0985 5.49997ZM0.442017 3.67911H3.17331L6.81503 0.94782V10.0521L3.17331 7.32083H0.442017V3.67911ZM9.71702 8.40197C10.4847 7.63159 10.9146 6.58756 10.912 5.49997C10.9146 4.41238 10.4847 3.36835 9.71702 2.59797L8.74969 3.56531C9.2615 4.07889 9.54809 4.77491 9.54632 5.49997C9.54809 6.22503 9.2615 6.92105 8.74969 7.43463L9.71702 8.40197Z" fill="white" />
        </symbol>
        <!--Lista-->
        <symbol  id="lista" width="13" height="13" viewBox="0 0 13 13" fill="none" xmlns="http://www.w3.org/2000/svg">
          <path fill-rule="evenodd" clip-rule="evenodd" d="M0.936195 6.2811L5.68826 3.50958C5.74728 3.47516 5.7964 3.42604 5.83082 3.36702C5.941 3.1781 5.87718 2.93563 5.68826 2.82545L0.936195 0.0539266C0.87564 0.0186093 0.806794 0 0.736693 0C0.517991 0 0.340698 0.177293 0.340698 0.395994V5.93903C0.340698 6.00913 0.359308 6.07798 0.394625 6.13853C0.504807 6.32745 0.747276 6.39128 0.936195 6.2811ZM12.2634 2.66542H6.74427L6.77186 2.68151C7.04026 2.83805 7.13094 3.18254 6.97441 3.45094C6.9255 3.5348 6.85572 3.60458 6.77186 3.65349L6.0522 4.07322H12.2634C12.6521 4.07322 12.9672 3.75807 12.9672 3.36932C12.9672 2.98057 12.6521 2.66542 12.2634 2.66542ZM2.40886 11.1122C2.0201 11.1122 1.70496 11.4274 1.70496 11.8161C1.70496 12.2049 2.0201 12.52 2.40886 12.52H12.2634C12.6522 12.52 12.9673 12.2049 12.9673 11.8161C12.9673 11.4274 12.6522 11.1122 12.2634 11.1122H2.40886ZM2.40886 6.88881C2.0201 6.88881 1.70496 7.20396 1.70496 7.59271C1.70496 7.98147 2.0201 8.29661 2.40886 8.29661H12.2634C12.6522 8.29661 12.9673 7.98147 12.9673 7.59271C12.9673 7.20396 12.6522 6.88881 12.2634 6.88881H2.40886Z" fill="white"/>
        </symbol>

        </svg>
